:SAMPLES-PER-SECOND 30
:FULLY-SPECIFIED
:DEGREES
111
root  -63.8612 40.3187 18.9921 -169.473 22.6709 172.191
RightUpLeg  -37.4318 -33.4703 5.08488
RightLeg  15.4057 -28.5496 -0.988272
RightFoot  -5.15325 0.361367 -7.26414
RightToes  0.000482159 0.542163 -0.142577
Spine  50.8609 -1.05289 3.40147
Spine1  5.53566 1.4219 -3.13747
HEad  -43.977 -20.3721 18.7259
LeftShoulder1  11.1339 -20.7747 -39.5676
LeftArm  -30.1183 -18.6479 -27.7018
LeftForeArm  5.35549 -47.0511 -11.6714
LeftHand  -0.25398 0.0180481 5.50724
RightShoulder  5.11092 12.9516 24.9187
RightArm  2.30989 48.1016 48.6635
RightForeArm  -15.0329 33.9552 8.38284
RightHand  -0.0322888 -4.74315 0.472862
LeftUpLeg  -18.9597 12.0258 4.13711
LeftLeg  -5.11839 52.8499 -16.795
LeftFoot  7.93756 -0.815964 4.51201
LeftToes  1.06248e-005 4.65855e-005 -8.18498e-006
112
root  -63.203 40.4633 18.7171 -171 25.1234 171.586
RightUpLeg  -35.5533 -35.1563 5.65201
RightLeg  16.0428 -29.1034 -1.87589
RightFoot  -6.8901 0.147426 -5.03515
RightToes  0.000482159 0.542163 -0.142577
Spine  47.1086 -0.562086 3.11755
Spine1  5.61716 1.56829 -2.94348
HEad  -41.6946 -21.0762 17.7765
LeftShoulder1  11.267 -20.2635 -41.0385
LeftArm  -29.8157 -13.2839 -26.6864
LeftForeArm  4.75799 -48.8186 -12.4963
LeftHand  -0.25398 0.0180481 5.50724
RightShoulder  5.49386 13.1107 27.0167
RightArm  6.41813 46.06 50.1542
RightForeArm  -16.3571 34.2469 8.5317
RightHand  -0.0456068 -6.23059 0.0887476
LeftUpLeg  -15.9129 10.4185 4.2219
LeftLeg  -8.34544 55.6365 -16.9833
LeftFoot  9.33412 -0.66001 3.315
LeftToes  1.06248e-005 4.65855e-005 -8.18498e-006
113
root  -62.4105 40.5366 18.4119 -172.713 27.9383 171.484
RightUpLeg  -32.8462 -35.17 5.7271
RightLeg  16.1051 -27.0737 -1.7787
RightFoot  -7.76937 0.0856306 -4.45961
RightToes  0.000482159 0.542163 -0.142577
Spine  43.8391 0.0880472 2.978
Spine1  5.7865 1.99782 -2.66765
HEad  -38.8631 -21.5926 16.6596
LeftShoulder1  11.2322 -19.6596 -42.0631
LeftArm  -29.4163 -7.90354 -25.8104
LeftForeArm  3.85871 -50.9364 -13.59
LeftHand  -0.25398 0.0180481 5.50724
RightShoulder  5.63073 12.9053 28.2992
RightArm  11.2289 44.413 52.7243
RightForeArm  -18.0481 33.8975 8.51367
RightHand  -0.0392141 -7.36153 -0.779385
LeftUpLeg  -13.1679 10.6583 5.38315
LeftLeg  -6.87859 58.3139 -14.8631
LeftFoot  9.23588 -0.232675 0.93248
LeftToes  1.06248e-005 4.65855e-005 -8.18498e-006
114
root  -61.5196 40.5319 18.1291 -175.012 30.8092 171.271
RightUpLeg  -30.3164 -35.6427 6.27768
RightLeg  16.5747 -22.9267 -1.9626
RightFoot  -8.60864 0.0841592 -6.00933
RightToes  0.000482159 0.542163 -0.142577
Spine  41.0513 0.594749 2.68199
Spine1  6.19106 2.31221 -2.62012
HEad  -35.3742 -21.6556 15.5632
LeftShoulder1  11.0127 -18.9716 -42.5452
LeftArm  -28.788 -2.61833 -24.8906
LeftForeArm  3.07301 -53.219 -14.8876
LeftHand  -0.25398 0.0180481 5.50724
RightShoulder  5.80184 12.9705 29.2228
RightArm  15.7565 43.0312 55.8683
RightForeArm  -19.489 32.5764 8.20976
RightHand  -0.0283295 -8.27929 -1.22133
LeftUpLeg  -10.7989 12.4251 7.05416
LeftLeg  0.0334361 58.9744 -9.42498
LeftFoot  6.28582 0.192653 -1.4941
LeftToes  1.06248e-005 4.65855e-005 -8.18498e-006
115
root  -60.5876 40.4805 17.9072 -177.871 33.3494 170.522
RightUpLeg  -27.9806 -36.4585 6.58393
RightLeg  17.8634 -19.2801 -3.0371
RightFoot  -9.78702 0.0433989 -8.05099
RightToes  0.000482159 0.542163 -0.142577
Spine  38.5742 0.977913 2.05536
Spine1  6.73917 2.35356 -2.48363
HEad  -31.6456 -21.484 14.3786
LeftShoulder1  10.8171 -18.3611 -42.9911
LeftArm  -27.8251 2.16854 -23.525
LeftForeArm  2.45426 -55.4182 -16.2869
LeftHand  -0.25398 0.0180481 5.50724
RightShoulder  6.03007 13.2444 30.0251
RightArm  19.4143 41.8839 58.9507
RightForeArm  -20.0711 30.6509 7.71425
RightHand  -0.0372202 -9.08513 -0.856849
LeftUpLeg  -9.59042 16.1931 7.45378
LeftLeg  9.19294 51.3417 -1.62486
LeftFoot  1.37531 0.11774 -1.0018
LeftToes  1.06248e-005 4.65855e-005 -8.18498e-006
